<svg xmlns="http://www.w3.org/2000/svg" viewBox="0 0 841.9 595.3"><g fill="#61DAFB"><path d="M666.3 296.5c0-25.1-20.4-45.5-45.5-45.5-25.1 0-45.5 20.4-45.5 45.5s20.4 45.5 45.5 45.5c25.1 0 45.5-20.4 45.5-45.5zm-45.5 29.5c-16.3 0-29.5-13.2-29.5-29.5s13.2-29.5 29.5-29.5 29.5 13.2 29.5 29.5-13.2 29.5-29.5 29.5z"/><path d="M667.4 370.1c-6.2-10.7-13.2-21.1-20.9-31.1-7.7-10-16.1-19.5-25.1-28.3-9-8.8-18.6-16.9-28.7-24.2-10.1-7.3-20.7-13.8-31.7-19.4-11-5.6-22.4-10.3-34.1-14.1-11.7-3.8-23.7-6.7-35.9-8.7-12.2-2-24.6-3-37.1-3-12.5 0-24.9 1-37.1 3-12.2 2-24.2 4.9-35.9 8.7-11.7 3.8-23.1 8.5-34.1 14.1-11 5.6-21.6 12.1-31.7 19.4-10.1 7.3-19.7 15.4-28.7 24.2-9 8.8-17.4 18.3-25.1 28.3-7.7 10-14.7 20.4-20.9 31.1-6.2 10.7-11.6 21.8-16.1 33.2-4.5 11.4-8.1 23.1-10.7 35.1-2.6 12-4.2 24.2-4.7 36.6-.5 12.4-.2 24.9 1 37.4 1.2 12.5 3.2 24.9 6.1 37.2 2.9 12.3 6.7 24.5 11.3 36.5 4.6 12 10.1 23.7 16.5 35.1 6.4 11.4 13.7 22.4 21.8 33.1 8.1 10.7 17.1 20.9 27 30.6 9.9 9.7 20.7 18.7 32.3 27.1 11.6 8.4 23.9 16.1 36.9 23.1 13 7 26.7 13.2 41.1 18.6 14.4 5.4 29.4 9.9 45 13.5 15.6 3.6 31.7 6.3 48.3 8.1 16.6 1.8 33.7 2.7 51.3 2.7 17.6 0 34.7-.9 51.3-2.7 16.6-1.8 32.7-4.5 48.3-8.1 15.6-3.6 30.6-8.1 45-13.5 14.4-5.4 28.1-11.6 41.1-18.6 13-7 25.3-14.7 36.9-23.1 11.6-8.4 22.4-17.4 32.3-27.1 9.9-9.7 18.9-19.9 27-30.6 8.1-10.7 15.4-21.7 21.8-33.1 6.4-11.4 12-23.1 16.5-35.1 4.6-12 8.4-24.2 11.3-36.5 2.9-12.3 4.9-24.7 6.1-37.2 1.2-12.5 1.5-25 .9-37.4-.5-12.4-2.1-24.6-4.7-36.6-2.6-12-6.2-23.7-10.7-35.1-4.5-11.4-9.9-22.5-16.1-33.2zm-16.1 33.2c4.5 11.4 8.1 23.1 10.7 35.1 2.6 12 4.2 24.2 4.7 36.6.5 12.4.2 24.9-1 37.4-1.2 12.5-3.2 24.9-6.1 37.2-2.9 12.3-6.7 24.5-11.3 36.5-4.6 12-10.1 23.7-16.5 35.1-6.4 11.4-13.7 22.4-21.8 33.1-8.1 10.7-17.1 20.9-27 30.6-9.9 9.7-20.7 18.7-32.3 27.1-11.6 8.4-23.9 16.1-36.9 23.1-13 7-26.7 13.2-41.1 18.6-14.4 5.4-29.4 9.9-45 13.5-15.6 3.6-31.7 6.3-48.3 8.1-16.6 1.8-33.7 2.7-51.3 2.7-17.6 0-34.7-.9-51.3-2.7-16.6-1.8-32.7-4.5-48.3-8.1-15.6-3.6-30.6-8.1-45-13.5-14.4-5.4-28.1-11.6-41.1-18.6-13-7-25.3-14.7-36.9-23.1-11.6-8.4-22.4-17.4-32.3-27.1-9.9-9.7-18.9-19.9-27-30.6-8.1-10.7-15.4-21.7-21.8-33.1-6.4-11.4-12-23.1-16.5-35.1-4.6-12-8.4-24.2-11.3-36.5-2.9-12.3-4.9-24.7-6.1-37.2-1.2-12.5-1.5-25-.9-37.4.5-12.4 2.1-24.6 4.7-36.6 2.6-12 6.2-23.7 10.7-35.1 4.5-11.4 9.9-22.5 16.1-33.2 6.2-10.7 13.2-21.1 20.9-31.1 7.7-10 16.1-19.5 25.1-28.3 9-8.8 18.6-16.9 28.7-24.2 10.1-7.3 20.7-13.8 31.7-19.4 11-5.6 22.4-10.3 34.1-14.1 11.7-3.8 23.7-6.7 35.9-8.7 12.2-2 24.6-3 37.1-3 12.5 0 24.9 1 37.1 3 12.2 2 24.2 4.9 35.9 8.7 11.7 3.8 23.1 8.5 34.1 14.1 11 5.6 21.6 12.1 31.7 19.4 10.1 7.3 19.7 15.4 28.7 24.2 9 8.8 17.4 18.3 25.1 28.3 7.7 10 14.7 20.4 20.9 31.1z"/></g></svg>